# xmcd CD database file
#
# Track frame offsets:
#	150
#	19686
#	39218
#	58752
#	78286
#	97822
#
# Disc length: 1560 seconds
#
# Revision: 1
# Processed by: cddbd v1.5.2PL0 Copyright (c) Steve Scherf et al.
# Submitted via: CDex 1.70beta2
#
DISCID=37061606
DTITLE=南砺市 - 南砺市の歌「緑の里から」
DYEAR=2011
DGENRE=Pop
TTITLE0=【歌】林道 美由紀 【コーラス】なんとジュニアコーラス＆吉江中学校吹奏楽部
TTITLE1=【歌とコーラス】なんとジュニアコーラス＆吉江中学校吹奏楽部
TTITLE2=【歌とコーラス】林道 美有紀
TTITLE3=カラオケ
TTITLE4=カラオケ(なんとジュニアコーラス＆吉江中学校吹奏楽部のコーラス)
TTITLE5=One Day, One Dream 〜karaoke〜
EXTD=YEAR: 2011
EXTT0=
EXTT1=
EXTT2=
EXTT3=
EXTT4=
EXTT5=
PLAYORDER=
